<svg width="79" height="84" viewBox="0 0 79 84" fill="none" xmlns="http://www.w3.org/2000/svg">
<g filter="url(#filter0_d_0_1)">
<path d="M63.25 0.499996L54.1 9.5H28.75V21.5H49.75C52.65 21.5 55.1 22.55 57.1 24.65C59.2 26.65 60.25 29.1 60.25 32V42.5C60.25 45.4 59.2 47.9 57.1 50C55.1 52 52.65 53 49.75 53H18.25V44H49.75V30.5H28.75C25.85 30.5 23.35 29.5 21.25 27.5C19.25 25.4 18.25 22.9 18.25 20V11C18.25 8.1 19.25 5.65 21.25 3.65C23.35 1.55 25.85 0.499996 28.75 0.499996H63.25Z" fill="#5393F1"/>
</g>
<g filter="url(#filter1_d_0_1)">
<path d="M74.75 75.6489H4.25V65.1489H74.75V75.6489Z" fill="#5393F1"/>
</g>
<defs>
<filter id="filter0_d_0_1" x="14.25" y="0.5" width="53" height="60.5" filterUnits="userSpaceOnUse" color-interpolation-filters="sRGB">
<feFlood flood-opacity="0" result="BackgroundImageFix"/>
<feColorMatrix in="SourceAlpha" type="matrix" values="0 0 0 0 0 0 0 0 0 0 0 0 0 0 0 0 0 0 127 0" result="hardAlpha"/>
<feOffset dy="4"/>
<feGaussianBlur stdDeviation="2"/>
<feComposite in2="hardAlpha" operator="out"/>
<feColorMatrix type="matrix" values="0 0 0 0 0 0 0 0 0 0 0 0 0 0 0 0 0 0 0.25 0"/>
<feBlend mode="normal" in2="BackgroundImageFix" result="effect1_dropShadow_0_1"/>
<feBlend mode="normal" in="SourceGraphic" in2="effect1_dropShadow_0_1" result="shape"/>
</filter>
<filter id="filter1_d_0_1" x="0.25" y="65.1489" width="78.5" height="18.5" filterUnits="userSpaceOnUse" color-interpolation-filters="sRGB">
<feFlood flood-opacity="0" result="BackgroundImageFix"/>
<feColorMatrix in="SourceAlpha" type="matrix" values="0 0 0 0 0 0 0 0 0 0 0 0 0 0 0 0 0 0 127 0" result="hardAlpha"/>
<feOffset dy="4"/>
<feGaussianBlur stdDeviation="2"/>
<feComposite in2="hardAlpha" operator="out"/>
<feColorMatrix type="matrix" values="0 0 0 0 0 0 0 0 0 0 0 0 0 0 0 0 0 0 0.25 0"/>
<feBlend mode="normal" in2="BackgroundImageFix" result="effect1_dropShadow_0_1"/>
<feBlend mode="normal" in="SourceGraphic" in2="effect1_dropShadow_0_1" result="shape"/>
</filter>
</defs>
</svg>
