<svg width="292" height="61" viewBox="0 0 292 61" fill="none" xmlns="http://www.w3.org/2000/svg">
<g filter="url(#filter0_d_0_1)">
<path d="M49.25 0.499996L40.1 9.5H14.75V21.5H35.75C38.65 21.5 41.1 22.55 43.1 24.65C45.2 26.65 46.25 29.1 46.25 32V42.5C46.25 45.4 45.2 47.9 43.1 50C41.1 52 38.65 53 35.75 53H4.25V44H35.75V30.5H14.75C11.85 30.5 9.35 29.5 7.25 27.5C5.25 25.4 4.25 22.9 4.25 20V11C4.25 8.1 5.25 5.65 7.25 3.65C9.35 1.55 11.85 0.499996 14.75 0.499996H49.25ZM153.447 53H142.947V9.5H114.447V53H103.947V9.5H75.4473V53H64.9473V0.499996H75.4473V8L82.9473 0.499996H103.947C110.047 0.499996 113.497 3.05 114.297 8.15L121.947 0.499996H142.947C145.847 0.499996 148.297 1.55 150.297 3.65C152.397 5.65 153.447 8.1 153.447 11V53ZM224.768 53H214.268V45.35L205.268 53H182.768C179.868 53 177.368 52 175.268 50C173.268 47.9 172.268 45.4 172.268 42.5V32C172.268 29.1 173.268 26.65 175.268 24.65C177.368 22.55 179.868 21.5 182.768 21.5H212.768L203.768 30.35H182.768V44H214.268V9.5H172.268L181.268 0.499996H214.268C217.168 0.499996 219.618 1.55 221.618 3.65C223.718 5.65 224.768 8.1 224.768 11V53ZM287.709 21.5H277.209V9.5H256.209V53H245.709V0.499996H256.209V8L263.709 0.499996H277.209C280.109 0.499996 282.559 1.55 284.559 3.65C286.659 5.65 287.709 8.1 287.709 11V21.5Z" fill="#5393F1"/>
</g>
<defs>
<filter id="filter0_d_0_1" x="0.25" y="0.5" width="291.459" height="60.5" filterUnits="userSpaceOnUse" color-interpolation-filters="sRGB">
<feFlood flood-opacity="0" result="BackgroundImageFix"/>
<feColorMatrix in="SourceAlpha" type="matrix" values="0 0 0 0 0 0 0 0 0 0 0 0 0 0 0 0 0 0 127 0" result="hardAlpha"/>
<feOffset dy="4"/>
<feGaussianBlur stdDeviation="2"/>
<feComposite in2="hardAlpha" operator="out"/>
<feColorMatrix type="matrix" values="0 0 0 0 0 0 0 0 0 0 0 0 0 0 0 0 0 0 0.25 0"/>
<feBlend mode="normal" in2="BackgroundImageFix" result="effect1_dropShadow_0_1"/>
<feBlend mode="normal" in="SourceGraphic" in2="effect1_dropShadow_0_1" result="shape"/>
</filter>
</defs>
</svg>
